HIERARCHY
ROOT Hips
{
	OFFSET 0.000000 88.474243 0.000000
	CHANNELS 6 Xposition Yposition Zposition Zrotation Yrotation Xrotation 
	JOINT Hips_Spine
	{
		OFFSET 0.000000 0.000000 0.000000
		CHANNELS 3 Zrotation Yrotation Xrotation
		JOINT Spine
		{
			OFFSET 0.005100 8.711998 -0.691000
			CHANNELS 3 Zrotation Yrotation Xrotation
			JOINT Spine1
			{
				OFFSET -0.009200 8.660301 -1.275000
				CHANNELS 3 Zrotation Yrotation Xrotation
				JOINT Spine2
				{
					OFFSET 0.006300 9.852501 -1.857000
					CHANNELS 3 Zrotation Yrotation Xrotation
					JOINT Spine2_Neck
					{
						OFFSET 0.000000 0.000000 0.000000
						CHANNELS 3 Zrotation Yrotation Xrotation
						JOINT Neck
						{
							OFFSET 0.016300 11.420799 -0.263300
							CHANNELS 3 Zrotation Yrotation Xrotation
							End Site #name: Head
							{
								OFFSET -0.019200 9.262405 2.362500
							}
						}
					}
					JOINT Spine2_LeftShoulder
					{
						OFFSET 0.000000 0.000000 0.000000
						CHANNELS 3 Zrotation Yrotation Xrotation
						JOINT LeftShoulder
						{
							OFFSET 5.616900 6.732201 -0.345700
							CHANNELS 3 Zrotation Yrotation Xrotation
							JOINT LeftArm
							{
								OFFSET 10.664888 -0.183372 -2.440700
								CHANNELS 3 Zrotation Yrotation Xrotation
								JOINT LeftForeArm
								{
									OFFSET 27.459126 0.000000 0.000000
									CHANNELS 3 Zrotation Yrotation Xrotation
									End Site #name: LeftHand
									{
										OFFSET 21.306858 0.000000 0.000000
									}
								}
							}
						}
					}
					JOINT Spine2_RightShoulder
					{
						OFFSET 0.000000 0.000000 0.000000
						CHANNELS 3 Zrotation Yrotation Xrotation
						JOINT RightShoulder
						{
							OFFSET -5.580300 6.737503 -0.344400
							CHANNELS 3 Zrotation Yrotation Xrotation
							JOINT RightArm
							{
								OFFSET -10.679335 -0.188484 -2.383900
								CHANNELS 3 Zrotation Yrotation Xrotation
								JOINT RightForeArm
								{
									OFFSET -27.503529 0.000000 0.000000
									CHANNELS 3 Zrotation Yrotation Xrotation
									End Site #name: RightHand
									{
										OFFSET -21.306808 0.000000 0.000000
									}
								}
							}
						}
					}
				}
			}
		}
	}
	JOINT Hips_LeftUpLeg
	{
		OFFSET 0.000000 0.000000 0.000000
		CHANNELS 3 Zrotation Yrotation Xrotation
		JOINT LeftUpLeg
		{
			OFFSET 6.857700 -6.739601 0.312100
			CHANNELS 3 Zrotation Yrotation Xrotation
			JOINT LeftLeg
			{
				OFFSET -0.367590 -34.731552 -4.572400
				CHANNELS 3 Zrotation Yrotation Xrotation
				End Site #name: LeftFoot
				{
					OFFSET 0.367590 -34.656704 -6.067400
				}
			}
		}
	}
	JOINT Hips_RightUpLeg
	{
		OFFSET 0.000000 0.000000 0.000000
		CHANNELS 3 Zrotation Yrotation Xrotation
		JOINT RightUpLeg
		{
			OFFSET -6.876100 -6.733299 0.301000
			CHANNELS 3 Zrotation Yrotation Xrotation
			JOINT RightLeg
			{
				OFFSET 0.347353 -34.795158 -4.515900
				CHANNELS 3 Zrotation Yrotation Xrotation
				End Site #name: RightFoot
				{
					OFFSET -0.347353 -34.589367 -6.070300
				}
			}
		}
	}
}
MOTION
Frames: 12
Frame Time: 0.041667
5.722685 0.575552 1.005143 -3.942884 -10.058562 -1.161411 -0.000000 0.000000 -0.000000 -0.261579 0.630073 4.276122 -0.818084 1.306053 8.770090 0.000000 0.000000 0.000000 -0.797380 1.241321 8.607552 1.397141 -2.108604 3.043868 -0.904490 1.252380 8.522555 2.854294 0.688276 0.460153 -74.072291 -12.154338 26.539326 175.657163 -87.045374 -175.806103 -0.884394 1.290911 8.519309 -3.643327 -1.698004 1.126101 79.395772 -9.008187 4.935789 -176.252662 82.810417 -176.869668 -0.000000 -0.000000 -0.000000 1.795204 1.606678 -20.113521 -0.883143 0.257248 29.080366 0.000000 0.000000 0.000000 -7.945751 -0.209433 -15.863847 0.272684 -0.746784 18.916788 
5.912141 0.581243 1.017555 -3.916821 -10.225054 -1.168487 -0.000000 0.000000 -0.000000 -0.273482 0.637431 4.259458 -0.815296 1.306600 8.716398 0.000000 0.000000 0.000000 -0.769660 1.231067 8.540257 1.218222 -2.371517 3.096623 -0.887046 1.254499 8.442317 2.838669 0.691929 0.475894 -74.181498 -12.008734 26.424947 175.855619 -87.197297 -175.988117 -0.879551 1.287153 8.427864 -3.595212 -1.716603 1.120433 79.461368 -9.119039 4.847822 -176.359471 82.771985 -176.979734 -0.000000 -0.000000 -0.000000 1.532711 1.631678 -20.082903 -0.878540 0.271938 28.803040 0.000000 0.000000 0.000000 -8.176012 -0.100626 -15.995834 0.269269 -0.742285 18.847480 
6.085665 0.585415 1.029223 -3.897053 -10.371851 -1.175161 -0.000000 0.000000 -0.000000 -0.284045 0.646959 4.246958 -0.812450 1.306415 8.664585 0.000000 0.000000 0.000000 -0.745879 1.222244 8.483446 1.061469 -2.595645 3.135358 -0.872305 1.257812 8.376005 2.834043 0.707682 0.484807 -74.281570 -11.845759 26.345702 176.108585 -87.350410 -176.224291 -0.876794 1.282890 8.351942 -3.557514 -1.746404 1.115640 79.488650 -9.281164 4.784171 -176.500817 82.712199 -177.124150 -0.000000 -0.000000 -0.000000 1.302945 1.644538 -20.066058 -0.887953 0.286262 28.578328 0.000000 0.000000 0.000000 -8.378649 0.007348 -16.114642 0.261787 -0.734701 18.779397 
6.241476 0.588820 1.041303 -3.887321 -10.508599 -1.176594 -0.000000 0.000000 -0.000000 -0.291396 0.657806 4.242589 -0.808998 1.306245 8.623094 0.000000 0.000000 0.000000 -0.723975 1.217086 8.440404 0.924701 -2.785008 3.151154 -0.859198 1.266779 8.324138 2.842563 0.742424 0.495005 -74.379897 -11.679587 26.263832 176.356372 -87.505415 -176.457459 -0.875252 1.279504 8.293779 -3.533617 -1.786564 1.110325 79.464271 -9.488749 4.742189 -176.673901 82.646072 -177.279837 -0.000000 -0.000000 -0.000000 1.113177 1.655784 -20.071466 -0.915271 0.302606 28.403330 0.000000 0.000000 0.000000 -8.549734 0.099828 -16.228956 0.250335 -0.727978 18.703423 
6.376957 0.592744 1.054904 -3.887325 -10.627698 -1.179623 -0.000000 0.000000 -0.000000 -0.296898 0.669128 4.248610 -0.804931 1.308016 8.589858 0.000000 0.000000 0.000000 -0.703464 1.215211 8.404275 0.806066 -2.942723 3.157799 -0.846689 1.279855 8.283789 2.850534 0.781688 0.503693 -74.461014 -11.513938 26.195111 176.594094 -87.647534 -176.678125 -0.875657 1.278804 8.248334 -3.525425 -1.814603 1.109163 79.387177 -9.719736 4.715045 -176.867599 82.566165 -177.420785 -0.000000 -0.000000 -0.000000 0.967257 1.669612 -20.094295 -0.954167 0.320222 28.274448 0.000000 0.000000 0.000000 -8.686075 0.194340 -16.341760 0.232316 -0.720086 18.635321 
6.487827 0.597601 1.070193 -3.883481 -10.716678 -1.179891 -0.000000 0.000000 -0.000000 -0.300703 0.680548 4.257356 -0.799646 1.310690 8.561356 0.000000 0.000000 0.000000 -0.685179 1.215366 8.376010 0.717152 -3.062063 3.140932 -0.835408 1.295180 8.255785 2.878164 0.827559 0.510951 -74.533628 -11.340532 26.138363 176.878908 -87.781587 -176.946011 -0.877207 1.279172 8.215484 -3.524270 -1.845584 1.108835 79.313528 -9.939614 4.695997 -177.064957 82.467406 -177.566017 -0.000000 -0.000000 -0.000000 0.862349 1.688280 -20.132520 -1.001481 0.335961 28.195396 0.000000 0.000000 0.000000 -8.794077 0.294914 -16.444200 0.209666 -0.711064 18.550857 
6.570202 0.603828 1.086632 -3.879905 -10.758597 -1.184268 -0.000000 0.000000 -0.000000 -0.302090 0.692785 4.273492 -0.795522 1.312974 8.533489 0.000000 0.000000 0.000000 -0.667956 1.218526 8.356457 0.675286 -3.076325 3.112857 -0.824413 1.313965 8.236035 2.915278 0.880313 0.516209 -74.599521 -11.162154 26.079986 177.197537 -87.909943 -177.249435 -0.879004 1.280434 8.193580 -3.527523 -1.875952 1.108015 79.226722 -10.159327 4.673095 -177.237206 82.344450 -177.696997 -0.000000 -0.000000 -0.000000 0.797898 1.716130 -20.172671 -1.051394 0.351686 28.131410 0.000000 0.000000 0.000000 -8.866942 0.405730 -16.536740 0.186869 -0.695452 18.482895 
6.618653 0.612129 1.105309 -3.874560 -10.777003 -1.191739 -0.000000 0.000000 -0.000000 -0.301317 0.703846 4.291220 -0.791511 1.314197 8.506369 0.000000 0.000000 0.000000 -0.651467 1.223958 8.339843 0.659126 -3.061970 3.068900 -0.812700 1.333462 8.223890 2.955862 0.925751 0.519878 -74.655825 -10.973443 26.039394 177.561034 -88.013904 -177.596775 -0.880916 1.282766 8.180506 -3.534336 -1.914723 1.103423 79.152197 -10.360711 4.658982 -177.397302 82.210272 -177.816054 -0.000000 -0.000000 -0.000000 0.766753 1.754807 -20.201198 -1.092639 0.371067 28.052152 0.000000 0.000000 0.000000 -8.911862 0.520949 -16.628220 0.167509 -0.676236 18.422385 
6.628254 0.623982 1.126696 -3.870246 -10.752838 -1.203572 -0.000000 0.000000 -0.000000 -0.299497 0.713465 4.303548 -0.786672 1.315176 8.481514 0.000000 0.000000 0.000000 -0.636074 1.229865 8.328446 0.665648 -3.026669 3.018830 -0.800642 1.352790 8.218723 3.010059 0.973398 0.531602 -74.707239 -10.785978 26.027087 178.032874 -88.108149 -178.051131 -0.882707 1.284312 8.178742 -3.550900 -1.956329 1.099160 79.097635 -10.550849 4.635307 -177.545607 82.049656 -177.930846 -0.000000 -0.000000 -0.000000 0.754437 1.775408 -20.209036 -1.120425 0.396203 27.949459 0.000000 0.000000 0.000000 -8.921105 0.632514 -16.710009 0.158789 -0.653411 18.379563 
6.592525 0.640703 1.151668 -3.833794 -10.706743 -1.211439 -0.000000 0.000000 -0.000000 -0.296474 0.723217 4.312538 -0.781931 1.314268 8.455916 0.000000 0.000000 0.000000 -0.621456 1.237457 8.322069 0.694466 -2.973821 2.952153 -0.788137 1.370542 8.214809 3.068805 1.011835 0.555392 -74.743531 -10.612728 26.051261 178.562507 -88.178828 -178.567480 -0.884268 1.286487 8.184297 -3.567055 -1.985931 1.094569 79.036821 -10.713078 4.612338 -177.672203 81.896176 -178.029533 -0.000000 -0.000000 -0.000000 0.758669 1.747269 -20.176199 -1.133697 0.422431 27.812562 0.000000 0.000000 0.000000 -8.893590 0.725076 -16.760409 0.155092 -0.629765 18.346543 
6.506185 0.662799 1.179863 -3.766293 -10.619513 -1.220010 -0.000000 0.000000 -0.000000 -0.292145 0.733077 4.320219 -0.775865 1.311573 8.430046 0.000000 0.000000 0.000000 -0.607237 1.247211 8.319541 0.750119 -2.900811 2.866279 -0.775799 1.385607 8.212721 3.144554 1.047593 0.572783 -74.789154 -10.420002 26.109864 179.196270 -88.224070 -179.186283 -0.885551 1.288239 8.195691 -3.581736 -1.997192 1.090787 79.003165 -10.826218 4.595822 -177.785455 81.764299 -178.118533 -0.000000 -0.000000 -0.000000 0.772399 1.682393 -20.087130 -1.129435 0.448573 27.627492 0.000000 0.000000 0.000000 -8.832464 0.794709 -16.774626 0.153589 -0.608610 18.326229 
6.363574 0.690228 1.212078 -3.665530 -10.525875 -1.225531 -0.000000 0.000000 -0.000000 -0.286401 0.742285 4.332504 -0.767658 1.307483 8.401600 0.000000 0.000000 0.000000 -0.593133 1.257944 8.317808 0.821299 -2.814649 2.769524 -0.760613 1.399094 8.209665 3.232033 1.079690 0.582134 -74.829267 -10.230397 26.197859 179.834244 -88.248258 -179.816323 -0.885889 1.289274 8.207595 -3.609637 -2.000931 1.088146 78.982648 -10.917999 4.576473 -177.885482 81.636539 -178.198949 -0.000000 0.000000 -0.000000 0.783695 1.595617 -19.948405 -1.103198 0.477233 27.424105 0.000000 0.000000 0.000000 -8.741942 0.839432 -16.756732 0.147006 -0.603075 18.308900 
